# xmcd
# 
# Track frame offsets:
#     150
#     39110
#     65022
#     93592
#     124955
#     164505
# 
# Disc length: 2591
# 
# Revision: 1
# Processed by: cddbd v1.5.2PL0 Copyright (c) Steve Scherf et al.
# Submitted via: BonkEnc v1.0.8
# 
DISCID=4e0a1d06
DTITLE=Michel Petrucciani, Ron McClure - Cold Blues
DYEAR=1985
DGENRE=Contemporary Jazz
TTITLE0=Beautiful But Why?
TTITLE1=Autumn Leaves
TTITLE2=Something Like This
TTITLE3=There Will Never Be Another You
TTITLE4=I Just Say Hello!
TTITLE5=Cold Blues
EXTD=
EXTT0=
EXTT1=
EXTT2=
EXTT3=
EXTT4=
EXTT5=
PLAYORDER=
